<?xml version="1.0" standalone="no"?>
<!-- Generator: Paintmaps.com , Online SVG vector map maker -->
<svg xmlns="http://www.w3.org/2000/svg" version="1.1" baseProfile="full" width="800" height="533" style="background-color:false">
<path id="justo-briceno" data-municipio="Justo Briceño" d="M 351.9166 216.7706 L 351.3431 214.7972 L 350.603 213.8598 L 345.0529 211.3931 L 342.4443 209.5677 L 338.0597 205.8676 L 333.7491 200.6628 L 317.9126 214.9205 L 311.7705 221.6054 L 309.6984 223.2581 L 307.3303 224.0228 L 305.8318 223.8748 L 303.7042 222.7154 L 301.7802 220.5447 L 298.0246 214.8218 L 295.86 213.0211 L 293.2329 212.8484 L 289.2368 213.5885 L 286.1472 215.5372 L 284.2047 217.9053 L 281.1336 220.1747 L 273.9739 221.63 L 271.4208 222.6661 L 269.8853 223.7761 L 268.6827 225.4535 L 267.9982 226.9582 L 267.7022 229.1782 L 267.8502 229.6469 L 270.6068 231.6696 L 276.2495 234.087 L 290.0693 235.2711 L 294.1395 236.9731 L 296.045 239.2425 L 299.0606 244.102 L 302.1872 251.2062 L 303.3342 250.7869 L 304.3702 250.9102 L 305.7023 251.8475 L 308.3109 260.3085 L 310.0684 264.8472 L 312.936 263.9099 L 324.8133 258.1131 L 330.1045 256.4357 L 330.7705 258.9764 L 334.6371 264.5759 L 336.5242 265.8586 L 341.3158 266.0559 L 343.4433 265.3406 L 341.3158 257.9157 L 341.0013 251.9956 L 344.1464 254.3883 L 346.8659 255.597 L 347.791 255.523 L 347.0324 252.4149 L 344.0169 247.2841 L 343.0918 244.842 L 342.0928 241.0679 L 342.3518 238.9712 L 343.5728 237.3678 L 349.974 233.273 L 351.0841 231.053 L 351.8611 228.1669 L 352.2311 224.2448 L 351.9166 216.7706 Z" fill="#f4f6f7" stroke="#000000" stroke-width="0.5"/>
<path id="rangel" data-municipio="Rangel" d="M 342.0928 241.0679 L 345.8299 240.9692 L 354.8952 241.8326 L 362.6654 240.7966 L 365.052 240.2292 L 368.9371 238.6505 L 370.3246 238.6012 L 373.6547 240.3032 L 373.3587 239.1192 L 374.8387 233.0264 L 375.9118 231.1516 L 377.3733 230.1896 L 376.8923 229.4496 L 375.8008 228.8329 L 375.5417 226.8595 L 381.1474 223.6034 L 399.6109 222.1974 L 410.8777 216.2032 L 408.7502 213.2431 L 399.6294 203.1542 L 394.0238 199.6514 L 386.5126 196.05 L 377.4288 196.716 L 374.8942 196.4693 L 375.3937 199.0347 L 374.9682 200.0461 L 373.4142 200.6134 L 366.162 201.1561 L 360.7783 200.8354 L 358.1698 202.0688 L 357.2817 204.0915 L 355.5612 212.0838 L 354.7842 213.8105 L 353.1006 215.9812 L 351.9166 216.7706 L 352.2311 224.2448 L 351.8611 228.1669 L 351.0841 231.053 L 349.974 233.273 L 343.5728 237.3678 L 342.3518 238.9712 L 342.0928 241.0679 Z" fill="#f4f6f7" stroke="#000000" stroke-width="0.5"/>
<path id="libertador" data-municipio="Libertador" d="M 310.0684 264.8472 L 313.676 270.7427 L 314.1755 272.1241 L 314.305 276.9343 L 313.75 281.7937 L 309.9204 284.8278 L 309.4764 285.6172 L 311.1229 285.3705 L 313.75 286.4805 L 314.8785 293.9794 L 318.8562 295.6814 L 320.3732 297.3835 L 321.6682 299.8502 L 322.3158 307.3738 L 321.2427 311.2219 L 321.6682 319.3374 L 324.8503 321.5328 L 329.2904 323.2842 L 336.0986 324.5176 L 337.6157 326.047 L 340.8903 330.7091 L 341.0568 329.8457 L 342.6663 327.971 L 344.0169 327.7244 L 341.7228 312.5293 L 341.3713 308.9032 L 341.5008 307.4231 L 342.4443 306.3871 L 345.2379 301.7743 L 346.4774 299.0855 L 347.495 296.6188 L 347.9205 293.3874 L 347.606 290.3286 L 346.7549 287.6152 L 343.3138 281.5224 L 342.8328 279.4997 L 342.8328 277.2056 L 343.9614 270.6687 L 343.9799 267.3387 L 343.4433 265.3406 L 341.3158 266.0559 L 336.5242 265.8586 L 334.6371 264.5759 L 332.6575 262.0352 L 330.7705 258.9764 L 330.1045 256.4357 L 324.8133 258.1131 L 312.936 263.9099 L 310.0684 264.8472 Z" fill="#f4f6f7" stroke="#000000" stroke-width="0.5"/>
<path id="aricagua" data-municipio="Aricagua" d="M 464.7698 320.8668 L 461.2917 319.4608 L 459.1271 318.1041 L 453.0774 311.4932 L 450.8389 309.5938 L 445.1407 306.1404 L 438.499 303.279 L 433.4669 299.1102 L 431.2468 298.4442 L 425.6042 300.0476 L 423.6246 305.7457 L 418.2594 315.588 L 416.6869 317.5614 L 413.0608 324.7643 L 409.4532 330.0678 L 404.3656 335.5686 L 402.1825 339.2933 L 399.0374 347.6556 L 395.6888 351.0597 L 397.7609 352.5397 L 401.5905 357.3992 L 404.3471 362.8753 L 404.4581 366.2301 L 403.8845 369.2395 L 402.164 373.8277 L 401.757 377.4291 L 400.7765 382.1159 L 399.3704 384.558 L 395.6333 387.74 L 392.4697 389.4421 L 389.5651 392.5008 L 386.6421 394.7702 L 385.2915 397.533 L 384.681 399.8764 L 385.8095 405.4019 L 385.569 410.9274 L 389.2506 407.5233 L 395.7628 404.7852 L 402.349 400.0984 L 407.6216 397.681 L 412.1728 394.6469 L 418.9995 387.666 L 421.423 385.964 L 424.9751 385.372 L 427.7317 383.5959 L 435.1689 375.0117 L 438.3325 370.6456 L 440.5526 366.3781 L 442.4211 359.6933 L 444.3267 350.665 L 447.0648 342.9934 L 448.0453 338.3807 L 447.8048 334.8779 L 446.2137 329.1551 L 446.4172 326.8857 L 447.0278 325.529 L 448.2118 323.9749 L 451.7454 322.0262 L 453.7989 322.8402 L 455.871 325.1096 L 457.9246 326.1456 L 461.9577 324.4436 L 464.7698 320.8668 Z" fill="#f4f6f7" stroke="#000000" stroke-width="0.5"/>
<path id="arzobispo-chacon" data-municipio="Arzobispo Chacón" d="M 385.569 410.9274 L 385.8095 405.4019 L 384.681 399.8764 L 385.2915 397.533 L 386.6421 394.7702 L 389.5651 392.5008 L 392.4697 389.4421 L 395.6333 387.74 L 399.3704 384.558 L 400.7765 382.1159 L 401.757 377.4291 L 402.164 373.8277 L 403.8845 369.2395 L 404.4581 366.2301 L 404.3471 362.8753 L 401.5905 357.3992 L 397.7609 352.5397 L 395.6888 351.0597 L 399.0374 347.6556 L 402.1825 339.2933 L 403.2 337.5173 L 404.3656 335.5686 L 409.4532 330.0678 L 411.4698 327.1817 L 413.0608 324.7643 L 416.3539 318.2274 L 414.5038 316.5747 L 411.6733 310.6052 L 410.4152 309.2238 L 405.5866 307.2011 L 400.684 306.2884 L 385.6985 309.4952 L 381.0549 311.1726 L 382.6459 315.2427 L 382.7199 318.5481 L 381.9429 320.5215 L 380.4629 322.1989 L 378.6683 323.7036 L 376.9293 323.9749 L 375.9488 323.5556 L 374.4687 320.1021 L 373.1737 319.1894 L 370.6946 318.5234 L 368.7151 318.6961 L 367.2165 320.3488 L 366.9205 321.4095 L 364.1084 326.8363 L 359.5573 330.4871 L 357.8553 332.4112 L 356.3567 333.1018 L 353.9516 332.2138 L 347.1064 327.6997 L 345.1824 327.5023 L 342.6663 327.971 L 341.0568 329.8457 L 340.5018 332.9538 L 341.6488 339.688 L 341.7228 341.9574 L 341.2973 344.3502 L 340.1133 346.5702 L 338.1892 347.9763 L 337.5047 349.851 L 338.7812 362.974 L 339.7062 365.4901 L 340.5018 366.6988 L 343.2028 367.7595 L 346.4219 367.9075 L 346.6809 368.2282 L 346.7734 371.4843 L 343.6469 381.0305 L 342.3148 389.2694 L 343.4063 396.7436 L 345.0529 400.5917 L 350.122 407.2519 L 351.2506 411.7661 L 351.4726 417.5875 L 353.3781 418.4016 L 357.6517 418.9443 L 358.5028 419.8076 L 358.2808 424.7164 L 355.7647 432.24 L 355.5242 435.3727 L 355.8387 436.2114 L 356.3752 436.9021 L 357.8367 436.8774 L 360.1863 433.794 L 361.2223 429.2059 L 363.4979 424.7658 L 364.2749 419.8076 L 364.9039 418.2289 L 365.681 417.3655 L 367.901 415.9348 L 369.4921 419.2403 L 370.1026 425.6784 L 371.1016 426.6898 L 371.6936 426.7145 L 372.9147 425.2344 L 373.8027 423.335 L 375.8933 421.0656 L 376.7813 420.893 L 378.1318 421.4357 L 380.3334 422.9897 L 385.717 417.3902 L 386.6976 412.9748 L 385.569 410.9274 Z" fill="#f4f6f7" stroke="#000000" stroke-width="0.5"/>
<path id="campo-elias" data-municipio="Campo Elías" d="M 373.6547 240.3032 L 374.2282 242.6713 L 375.8933 245.878 L 378.5943 249.5535 L 378.8718 251.0335 L 377.1513 254.2649 L 376.3373 256.5837 L 376.1708 263.3425 L 376.6703 269.09 L 377.8358 274.4429 L 377.7803 278.4636 L 376.9293 282.6571 L 377.2993 284.7538 L 380.6849 292.4007 L 381.6839 298.1482 L 380.4629 306.0911 L 380.5554 308.9525 L 381.0549 311.1726 L 385.6985 309.4952 L 400.684 306.2884 L 405.5866 307.2011 L 410.4152 309.2238 L 411.6733 310.6052 L 414.5038 316.5747 L 416.3539 318.2274 L 418.2594 315.588 L 421.9781 308.6811 L 420.3315 305.9924 L 417.5934 303.0323 L 415.4289 299.6529 L 410.9147 290.6493 L 409.0462 285.3705 L 405.9381 280.9304 L 409.9527 278.513 L 412.1173 276.3422 L 413.8193 275.1829 L 412.1728 270.9154 L 411.8953 267.8073 L 412.1358 266.6233 L 412.8573 265.9326 L 412.6353 257.1757 L 411.3033 251.6502 L 410.7297 247.6294 L 410.6372 246.0261 L 411.0072 243.6827 L 410.5262 242.4246 L 410.3042 239.9579 L 408.3432 232.8783 L 408.3617 229.8689 L 408.9722 228.4876 L 410.3412 226.9828 L 415.9469 223.9981 L 417.0569 222.2467 L 417.5934 220.4707 L 417.6119 216.0305 L 414.6888 215.4139 L 411.8398 215.8085 L 399.3334 222.2714 L 381.1474 223.6034 L 375.5417 226.8595 L 375.8008 228.8329 L 376.8923 229.4496 L 377.3733 230.1896 L 375.9118 231.1516 L 374.8387 233.0264 L 373.3587 239.1192 L 373.6547 240.3032 Z" fill="#f4f6f7" stroke="#000000" stroke-width="0.5"/>
<path id="cardenal-quintero" data-municipio="Cardenal Quintero" d="M 410.8777 216.2032 L 414.6888 215.4139 L 417.6119 216.0305 L 419.4805 215.9319 L 421.7745 214.8958 L 430.1368 209.247 L 436.168 200.9094 L 438.5175 198.7881 L 442.7541 196.05 L 448.7853 194.2986 L 448.8408 182.6556 L 448.1008 179.9669 L 446.9168 178.1661 L 445.7512 177.2288 L 444.4562 175.4281 L 443.8827 173.7753 L 443.9752 172.4926 L 443.4757 172.3446 L 435.2429 171.0126 L 430.4143 171.9253 L 426.7142 174.5154 L 420.683 174.984 L 420.0725 174.392 L 419.5545 172.764 L 418.981 168.0279 L 416.9644 160.9977 L 415.5214 158.2349 L 411.5808 153.3508 L 410.9702 151.7967 L 410.4892 145.3092 L 411.3588 141.3378 L 411.1182 138.4024 L 410.3782 135.4916 L 405.6976 128.4367 L 405.1796 128.0667 L 404.0881 128.1161 L 395.6888 134.3816 L 383.275 141.0664 L 379.3344 144.8405 L 375.3197 149.6013 L 374.5057 151.3281 L 372.8222 157.2235 L 374.1542 157.3716 L 374.7462 158.7776 L 375.9303 164.5498 L 377.0033 167.1645 L 378.7978 170.1986 L 379.4454 172.172 L 379.0198 188.0824 L 379.8709 190.4012 L 381.0549 192.3252 L 384.3295 194.9399 L 394.0238 199.6514 L 399.6294 203.1542 L 408.7502 213.2431 L 410.8777 216.2032 Z" fill="#f4f6f7" stroke="#000000" stroke-width="0.5"/>
<path id="pueblo-llano" data-municipio="Pueblo Llano" d="M 532.2967 139.9071 L 531.0756 137.5637 L 529.3181 132.2602 L 527.912 130.1388 L 526.58 129.0534 L 522.3804 135.4669 L 520.0678 139.9317 L 514.8322 154.2141 L 513.5556 166.2765 L 511.2431 168.2252 L 508.542 169.1626 L 506.8584 169.1626 L 505.0639 166.9918 L 503.6764 166.0051 L 502.2333 165.9558 L 501.9558 167.8305 L 500.6978 171.654 L 499.4397 174.1207 L 495.8876 178.9555 L 493.7046 182.7296 L 491.392 184.9497 L 487.3219 187.2437 L 489.2274 190.9438 L 489.4495 194.1506 L 489.0979 202.3895 L 489.3939 203.8695 L 490.282 205.1029 L 491.17 205.1276 L 492.058 204.2395 L 493.8341 201.0821 L 494.8146 200.3421 L 496.3686 200.4654 L 497.7562 201.9208 L 499.5137 209.8144 L 500.6053 208.7043 L 505.2489 206.1883 L 510.0405 201.8715 L 512.1311 198.4427 L 513.5741 194.0766 L 514.7952 187.3671 L 516.9042 181.8416 L 518.9023 174.8607 L 523.3609 167.8798 L 525.4885 163.7604 L 528.5596 146.9126 L 530.5576 141.7078 L 532.2967 139.9071 Z" fill="#f4f6f7" stroke="#000000" stroke-width="0.5"/>
<path id="guaraque" data-municipio="Guaraque" d="M 321.7422 319.4115 L 317.4501 322.1249 L 314.712 327.6997 L 313.232 328.5137 L 308.4034 327.305 L 305.8503 325.8743 L 301.1327 330.0678 L 298.7461 333.0772 L 298.7276 334.5819 L 296.2855 342.9688 L 294.9905 346.2002 L 293.1404 349.4316 L 291.8454 350.887 L 300.2631 353.8964 L 302.8902 356.2892 L 305.0178 359.5206 L 307.4783 364.7994 L 310.0684 369.2642 L 319.3557 380.3152 L 321.8717 387.74 L 323.4443 390.4288 L 325.7753 392.4515 L 329.2904 393.2409 L 331.5105 392.7475 L 339.8172 389.2694 L 341.5748 388.8007 L 342.3148 389.2694 L 343.6469 381.0305 L 346.7734 371.4843 L 346.6809 368.2282 L 346.4219 367.9075 L 343.2028 367.7595 L 340.5018 366.6988 L 339.7062 365.4901 L 338.7812 362.974 L 337.5047 349.851 L 338.1892 347.9763 L 340.1133 346.5702 L 341.2973 344.3502 L 341.7228 341.9574 L 341.6488 339.688 L 340.5018 332.9538 L 340.8903 330.7091 L 337.6157 326.047 L 336.0986 324.5176 L 329.2904 323.2842 L 324.8503 321.5328 L 321.7422 319.4115 Z" fill="#f4f6f7" stroke="#000000" stroke-width="0.5"/>
<path id="julio-cesar-salas" data-municipio="Julio César Salas" d="M 448.3598 53.892 L 448.7853 54.1386 L 448.8408 60.0835 L 448.1193 76.2406 L 449.0443 90.375 L 450.2653 90.227 L 451.8379 90.819 L 453.6694 93.1624 L 455.649 99.5266 L 457.277 107.3215 L 458.2206 110.0102 L 459.0901 111.7123 L 461.1252 114.3023 L 462.1797 114.8697 L 462.9012 114.8204 L 465.0103 112.1069 L 474.242 122.3932 L 477.3316 124.86 L 478.5341 125.23 L 481.7532 118.2245 L 482.4748 115.437 L 483.8068 112.0823 L 481.0687 111.3916 L 478.6266 111.8356 L 475.7961 109.4429 L 470.9489 109.9856 L 469.6539 108.8015 L 469.0989 107.4201 L 468.6919 104.7067 L 468.1739 95.8512 L 467.6373 92.3484 L 462.1057 65.0416 L 460.6071 62.3282 L 456.1485 59.0968 L 452.0969 53.4726 L 450.6909 53.3 L 448.3598 53.892 Z" fill="#f4f6f7" stroke="#000000" stroke-width="0.5"/>
<path id="miranda" data-municipio="Miranda" d="M 448.7853 194.2986 L 453.7989 193.6079 L 456.5925 192.7199 L 464.2702 189.1924 L 466.7493 187.0957 L 472.614 176.0447 L 476.1106 172.9613 L 476.7766 170.2479 L 476.7396 168.0772 L 476.0921 166.0298 L 475.3891 158.1609 L 474.7785 155.4968 L 470.9489 145.2599 L 467.2303 140.8691 L 467.2118 140.2771 L 467.3783 136.651 L 468.8029 134.2829 L 471.8925 131.0021 L 473.2615 128.3134 L 476.3326 124.12 L 472.4845 120.5432 L 465.0103 112.1069 L 462.9012 114.8204 L 462.4202 114.8697 L 460.4776 121.3325 L 459.8486 127.3267 L 460.0521 132.4822 L 460.4776 135.3436 L 458.3131 133.4442 L 455.7785 128.4861 L 453.3734 119.0878 L 452.0969 109.0482 L 451.4864 106.1868 L 444.1972 113.735 L 441.3851 118.1751 L 441.1816 121.8012 L 442.6616 125.822 L 446.1952 131.6188 L 445.7142 132.6055 L 444.6782 132.8769 L 443.4572 132.5562 L 435.5759 128.6094 L 433.2449 128.8314 L 435.0209 133.9622 L 438.5545 139.4384 L 440.2381 140.8938 L 443.6977 142.6698 L 444.1602 143.9525 L 444.0492 150.4894 L 445.9917 159.1476 L 445.9917 162.157 L 444.1787 169.5326 L 443.8827 173.7753 L 444.4562 175.4281 L 445.7512 177.2288 L 446.9168 178.1661 L 448.1008 179.9669 L 448.8408 182.6556 L 448.7853 194.2986 Z" fill="#f4f6f7" stroke="#000000" stroke-width="0.5"/>
<path id="santos-marquina" data-municipio="Santos Marquina" d="M 473.5945 290.156 L 471.911 289.1199 L 470.1164 286.4805 L 467.6373 281.6457 L 464.9548 277.9456 L 463.8632 271.8034 L 462.3462 266.9193 L 459.9226 263.7125 L 457.277 257.7924 L 454.761 253.5003 L 452.1524 251.9216 L 447.3238 250.9349 L 439.202 247.8268 L 435.3909 244.7927 L 434.4659 242.8193 L 434.1884 239.3165 L 434.3919 236.7511 L 437.574 227.7969 L 439.387 224.7381 L 443.1982 216.4252 L 446.4172 212.4291 L 452.9109 206.7556 L 455.39 202.4635 L 456.9995 198.6647 L 458.8311 196.716 L 458.7756 193.2132 L 458.0541 192.0785 L 453.7989 193.6079 L 446.7132 194.6439 L 442.7541 196.05 L 438.5175 198.7881 L 436.168 200.9094 L 430.1368 209.247 L 421.7745 214.8958 L 419.4805 215.9319 L 417.6119 216.0305 L 417.5934 220.4707 L 417.0569 222.2467 L 415.9469 223.9981 L 410.3412 226.9828 L 408.9722 228.4876 L 408.3617 229.8689 L 408.3432 232.8783 L 410.3042 239.9579 L 410.5262 242.4246 L 411.0072 243.6827 L 410.6372 246.0261 L 410.7297 247.6294 L 411.3033 251.6502 L 412.6353 257.1757 L 412.8573 265.9326 L 412.1358 266.6233 L 411.8953 267.8073 L 412.1728 270.9154 L 413.8193 275.1829 L 412.1173 276.3422 L 409.9527 278.513 L 405.9381 280.9304 L 409.0462 285.3705 L 410.9147 290.6493 L 415.4289 299.6529 L 417.5934 303.0323 L 420.3315 305.9924 L 421.9781 308.6811 L 423.6246 305.7457 L 425.6042 300.0476 L 431.2468 298.4442 L 433.4669 299.1102 L 438.499 303.279 L 447.9713 307.6205 L 453.0774 311.4932 L 459.1271 318.1041 L 461.2917 319.4608 L 464.7698 320.8668 L 467.1748 316.476 L 471.3374 297.2108 L 473.5945 290.156 Z" fill="#f4f6f7" stroke="#000000" stroke-width="0.5"/>
<path id="sucre" data-municipio="Sucre" d="M 502.2333 165.9558 L 503.7874 160.233 L 504.5459 158.4816 L 505.0824 154.9295 L 504.7124 141.5351 L 505.4894 138.501 L 506.4144 137.0456 L 507.6725 133.9622 L 506.7104 134.4062 L 503.8244 134.3076 L 501.7893 132.8769 L 500.3648 131.4955 L 495.0736 121.3819 L 493.1496 118.4711 L 489.875 116.4237 L 487.6549 115.6344 L 483.8068 112.0823 L 482.4748 115.437 L 481.7532 118.2245 L 478.5341 125.23 L 476.3326 124.12 L 473.2615 128.3134 L 471.8925 131.0021 L 468.8029 134.2829 L 467.3783 136.651 L 467.2303 140.8691 L 470.9489 145.2599 L 474.7785 155.4968 L 475.3891 158.1609 L 475.9626 165.1171 L 476.7396 168.0772 L 476.7766 170.2479 L 476.1106 172.9613 L 474.908 174.1454 L 477.8681 175.9214 L 479.3852 177.5988 L 480.5877 180.0162 L 482.5488 182.2363 L 485.8974 185.1717 L 487.3219 187.2437 L 491.392 184.9497 L 493.7046 182.7296 L 495.8876 178.9555 L 499.4397 174.1207 L 500.6978 171.654 L 501.9558 167.8305 L 502.2333 165.9558 Z" fill="#f4f6f7" stroke="#000000" stroke-width="0.5"/>
<path id="andres-bello" data-municipio="Andrés Bello" d="M 351.9166 216.7706 L 353.1006 215.9812 L 354.7842 213.8105 L 355.5612 212.0838 L 357.2817 204.0915 L 358.1698 202.0688 L 360.7783 200.8354 L 366.162 201.1561 L 373.4142 200.6134 L 374.9682 200.0461 L 375.3937 199.0347 L 374.8942 196.4693 L 377.4288 196.716 L 386.5126 196.05 L 384.3295 194.9399 L 381.0549 192.3252 L 379.8709 190.4012 L 379.0198 188.0824 L 379.4454 172.172 L 378.7978 170.1986 L 377.0033 167.1645 L 375.9303 164.5498 L 374.7462 158.7776 L 374.1542 157.3716 L 372.8222 157.2235 L 370.6576 162.0337 L 363.8864 169.7792 L 354.3957 178.5608 L 343.3138 191.1165 L 333.7491 200.6628 L 338.0597 205.8676 L 342.4443 209.5677 L 345.0529 211.3931 L 350.603 213.8598 L 351.3431 214.7972 L 351.9166 216.7706 Z" fill="#f4f6f7" stroke="#000000" stroke-width="0.5"/>
<path id="padre-noguera" data-municipio="Padre Noguera" d="M 380.3334 422.9897 L 378.1318 421.4357 L 376.7813 420.893 L 375.8933 421.0656 L 373.8027 423.335 L 372.0822 426.4925 L 371.1016 426.6898 L 370.1026 425.6784 L 369.8251 424.5191 L 369.4921 419.2403 L 367.901 415.9348 L 367.531 416.0582 L 364.9039 418.2289 L 364.2749 419.8076 L 363.4979 424.7658 L 361.2223 429.2059 L 360.1863 433.794 L 358.5398 436.2114 L 357.8367 436.8774 L 356.8932 437.0748 L 355.8387 436.2114 L 355.5242 435.3727 L 355.5612 433.6953 L 356.4307 429.7732 L 358.2808 424.7164 L 358.5028 419.8076 L 357.6517 418.9443 L 353.3781 418.4016 L 351.4726 417.5875 L 351.2506 442.8716 L 351.4171 459.9414 L 352.1571 467.4156 L 353.4151 472.5711 L 355.2097 477.0852 L 354.7102 479.7 L 356.8747 479.5766 L 359.5943 478.3679 L 361.2778 475.3832 L 362.1104 469.8824 L 361.8144 456.266 L 362.4249 451.2585 L 363.3129 448.2737 L 366.2545 443.7103 L 372.6372 436.3101 L 375.1162 432.3386 L 377.8173 426.3445 L 380.3334 422.9897 Z" fill="#f4f6f7" stroke="#000000" stroke-width="0.5"/>
<path id="antonio-pinto-salinas" data-municipio="Antonio Pinto Salinas" d="M 526.58 129.0534 L 524.1379 126.0687 L 523.0649 123.9966 L 521.2888 122.7879 L 519.5313 123.0346 L 515.6647 126.34 L 513.3521 129.4728 L 509.319 133.2469 L 507.6725 133.9622 L 506.4144 137.0456 L 505.4894 138.501 L 504.7124 141.5351 L 505.0824 154.9295 L 504.5459 158.4816 L 503.7874 160.233 L 502.2518 165.9805 L 503.6764 166.0051 L 505.0639 166.9918 L 506.8584 169.1626 L 508.542 169.1626 L 511.2431 168.2252 L 513.5556 166.2765 L 514.8322 154.2141 L 520.0678 139.9317 L 522.3804 135.4669 L 526.58 129.0534 Z" fill="#f4f6f7" stroke="#000000" stroke-width="0.5"/>
<path id="caracciolo-parra-olmedo" data-municipio="Caracciolo Parra Olmedo" d="M 476.5546 244.546 L 478.1826 243.51 L 483.1963 242.1039 L 490.1155 241.3639 L 494.6111 240.1552 L 497.3492 238.8725 L 500.5498 236.4058 L 501.8818 234.7777 L 502.6588 231.0283 L 502.0298 227.0075 L 500.1243 223.6774 L 498.4407 219.6813 L 497.7932 215.5125 L 498.0522 212.6018 L 499.5137 209.8144 L 497.7562 201.9208 L 496.3686 200.4654 L 494.8146 200.3421 L 493.8341 201.0821 L 492.058 204.2395 L 491.17 205.1276 L 490.282 205.1029 L 489.3939 203.8695 L 489.0979 202.3895 L 489.4495 194.1506 L 489.2274 190.9438 L 488.2099 188.5758 L 485.8974 185.1717 L 482.5488 182.2363 L 480.5877 180.0162 L 479.3852 177.5988 L 477.8681 175.9214 L 474.908 174.1454 L 472.614 176.0447 L 466.7493 187.0957 L 464.2702 189.1924 L 458.0541 192.0785 L 458.7756 193.2132 L 458.8311 196.716 L 456.9995 198.6647 L 454.0395 204.9549 L 452.0229 207.767 L 444.8447 214.1065 L 443.0131 216.8446 L 447.8418 218.4233 L 448.3228 227.5255 L 448.2673 232.1383 L 448.7483 235.4438 L 450.5614 238.5518 L 452.8924 239.6372 L 455.3715 239.4152 L 462.6607 237.2691 L 465.0843 236.0358 L 466.9898 237.6391 L 467.7483 239.9332 L 467.6743 241.6846 L 466.8418 244.4227 L 467.0453 246.4701 L 467.9888 248.0981 L 469.0434 248.9368 L 470.9489 249.6522 L 473.835 249.6522 L 474.9265 246.5194 L 476.5546 244.546 Z" fill="#f4f6f7" stroke="#000000" stroke-width="0.5"/>
<path id="tovar" data-municipio="Tovar" d="M 305.8503 325.8743 L 304.4627 324.1969 L 302.5572 318.8441 L 299.4306 313.4666 L 298.1911 312.7513 L 294.047 311.8386 L 292.7149 315.6867 L 290.5319 320.1515 L 282.1141 331.9178 L 280.7636 335.1492 L 280.4861 338.8247 L 281.0411 342.5248 L 282.5396 345.5095 L 285.8882 348.6669 L 291.8454 350.887 L 293.1404 349.4316 L 294.9905 346.2002 L 296.2855 342.9688 L 298.7276 334.5819 L 298.7461 333.0772 L 301.1327 330.0678 L 305.8503 325.8743 Z" fill="#f4f6f7" stroke="#000000" stroke-width="0.5"/>
<path id="zea" data-municipio="Zea" d="M 473.835 249.6522 L 470.9489 249.6522 L 469.0434 248.9368 L 467.9888 248.0981 L 466.8233 245.73 L 466.8418 244.4227 L 467.6743 241.6846 L 467.7483 239.9332 L 466.9898 237.6391 L 465.0843 236.0358 L 462.6607 237.2691 L 455.3715 239.4152 L 452.8924 239.6372 L 450.5614 238.5518 L 448.7483 235.4438 L 448.2673 232.1383 L 448.3228 227.5255 L 447.8418 218.4233 L 446.9353 218.0533 L 443.0131 216.8446 L 439.387 224.7381 L 437.574 227.7969 L 434.3919 236.7511 L 434.1884 239.3165 L 434.4659 242.8193 L 435.3909 244.7927 L 437.204 246.3467 L 439.202 247.8268 L 447.3238 250.9349 L 452.1524 251.9216 L 454.761 253.5003 L 457.277 257.7924 L 459.9226 263.7125 L 462.3462 266.9193 L 463.8632 271.8034 L 464.9548 277.9456 L 467.6373 281.6457 L 470.1164 286.4805 L 471.911 289.1199 L 473.5945 290.156 L 474.2235 283.4711 L 474.131 273.2342 L 474.7045 264.9706 L 474.4455 259.8891 L 473.798 255.3503 L 473.835 249.6522 Z" fill="#f4f6f7" stroke="#000000" stroke-width="0.5"/>
<path id="rivas-davila" data-municipio="Rivas Davila" d="M 343.4433 265.3406 L 343.9799 267.3387 L 343.9614 270.6687 L 342.8328 277.2056 L 342.8328 279.4997 L 343.3138 281.5224 L 346.7549 287.6152 L 347.606 290.3286 L 347.9205 293.3874 L 347.495 296.6188 L 346.4774 299.0855 L 345.2379 301.7743 L 342.4443 306.3871 L 341.5008 307.4231 L 341.3713 308.9032 L 341.7228 312.5293 L 344.0169 327.7244 L 347.1064 327.6997 L 353.9516 332.2138 L 356.3567 333.1018 L 357.8553 332.4112 L 359.5573 330.4871 L 364.1084 326.8363 L 366.9205 321.4095 L 367.2165 320.3488 L 368.7151 318.6961 L 370.6946 318.5234 L 373.1737 319.1894 L 374.4687 320.1021 L 375.9488 323.5556 L 376.9293 323.9749 L 378.6683 323.7036 L 381.9429 320.5215 L 382.7199 318.5481 L 382.6459 315.2427 L 381.2029 311.7646 L 380.5554 308.9525 L 380.4629 306.0911 L 381.6839 298.1482 L 380.6849 292.4007 L 377.2993 284.7538 L 376.9293 282.6571 L 377.7803 278.4636 L 377.8358 274.4429 L 376.6703 269.09 L 376.1708 263.3425 L 376.1338 258.9271 L 376.3373 256.5837 L 377.1513 254.2649 L 378.8718 251.0335 L 378.5943 249.5535 L 375.8933 245.878 L 374.2282 242.6713 L 373.6547 240.3032 L 370.3246 238.6012 L 368.9371 238.6505 L 365.052 240.2292 L 362.6654 240.7966 L 354.8952 241.8326 L 345.8299 240.9692 L 342.0928 241.0679 L 344.0169 247.2841 L 347.0324 252.4149 L 347.791 255.523 L 346.8659 255.597 L 344.1464 254.3883 L 341.0013 251.9956 L 341.3158 257.9157 L 343.4433 265.3406 Z" fill="#f4f6f7" stroke="#000000" stroke-width="0.5"/>
<path id="alberto-adriani" data-municipio="Alberto Adriani" d="M 309.4764 285.6172 L 308.7734 286.8505 L 307.9593 289.7366 L 306.6828 296.7421 L 305.6838 299.4556 L 304.2037 302.1196 L 302.8347 303.5997 L 294.5095 309.7172 L 294.047 311.8386 L 298.1911 312.7513 L 299.4306 313.4666 L 302.5572 318.8441 L 303.9817 323.2349 L 305.2213 325.381 L 306.6088 326.491 L 308.4034 327.305 L 313.232 328.5137 L 314.712 327.6997 L 317.4501 322.1249 L 321.7422 319.4115 L 321.2427 311.2219 L 322.3158 307.3738 L 321.6682 299.8502 L 320.3732 297.3835 L 318.8562 295.6814 L 314.8785 293.9794 L 313.75 286.4805 L 311.1229 285.3705 L 309.4764 285.6172 Z" fill="#f4f6f7" stroke="#000000" stroke-width="0.5"/>
<path id="obispo-ramos-de-lora" data-municipio="Obispo Ramos de Lora" d="M 443.9752 172.4926 L 444.1787 169.5326 L 445.9917 162.157 L 445.9917 159.1476 L 444.0492 150.4894 L 444.1602 143.9525 L 443.6977 142.6698 L 440.2381 140.8938 L 438.5545 139.4384 L 435.0209 133.9622 L 433.2449 128.8314 L 435.5759 128.6094 L 443.4572 132.5562 L 444.6782 132.8769 L 445.7142 132.6055 L 446.1952 131.6188 L 442.6616 125.822 L 441.1816 121.8012 L 441.3851 118.1751 L 444.1972 113.735 L 451.4864 106.1868 L 452.0969 109.0482 L 453.3734 119.0878 L 455.7785 128.4861 L 458.3131 133.4442 L 460.4776 135.3436 L 459.8856 129.4481 L 460.0521 124.0459 L 460.4776 121.3325 L 462.4202 114.8697 L 461.1252 114.3023 L 459.0901 111.7123 L 458.2206 110.0102 L 457.277 107.3215 L 454.6315 95.9252 L 453.6694 93.1624 L 451.8379 90.819 L 450.2653 90.227 L 449.0443 90.375 L 449.2108 93.8038 L 448.9703 96.8872 L 447.3238 99.6006 L 444.8817 101.8207 L 441.0336 102.98 L 437.833 102.832 L 428.0277 98.7866 L 424.9566 96.7885 L 419.388 92.3484 L 411.4698 84.0108 L 410.2857 85.7869 L 408.9537 85.3182 L 409.3237 85.9842 L 409.2682 87.7109 L 408.4912 89.413 L 407.0481 90.8683 L 406.3821 93.4584 L 406.1231 96.0732 L 407.6031 96.9612 L 411.1552 100.2173 L 420.498 109.4675 L 421.1455 111.4409 L 421.016 116.1277 L 420.387 119.9018 L 419.7765 132.4329 L 417.3344 137.7857 L 415.1144 140.9678 L 413.4678 142.1765 L 412.3763 142.5218 L 411.3588 141.3378 L 410.4892 145.3092 L 410.5817 148.96 L 410.9702 151.7967 L 411.5808 153.3508 L 415.5214 158.2349 L 416.9644 160.9977 L 418.981 168.0279 L 419.5545 172.764 L 420.0725 174.392 L 420.683 174.984 L 426.7142 174.5154 L 430.4143 171.9253 L 432.7454 171.2839 L 437.4075 171.2099 L 443.9752 172.4926 Z" fill="#f4f6f7" stroke="#000000" stroke-width="0.5"/>
<path id="tulio-febres-cordero" data-municipio="Tulio Febres Cordero" d="M 302.1872 251.2062 L 305.1843 260.1358 L 306.1463 264.9212 L 305.8503 268.9667 L 304.3332 273.6782 L 300.7441 279.179 L 299.6526 284.4825 L 299.2086 288.3552 L 298.3391 291.6607 L 295.5455 298.1482 L 295.0645 306.6831 L 294.5095 309.7172 L 302.8347 303.5997 L 304.2037 302.1196 L 305.6838 299.4556 L 306.6828 296.7421 L 307.9593 289.7366 L 308.7734 286.8505 L 309.9204 284.8278 L 313.75 281.7937 L 314.083 279.8697 L 314.1755 272.1241 L 313.676 270.7427 L 310.3644 265.5379 L 309.3654 263.2439 L 305.7023 251.8475 L 304.3702 250.9102 L 303.3342 250.7869 L 302.1872 251.2062 Z" fill="#f4f6f7" stroke="#000000" stroke-width="0.5"/>
</svg>